<svg version="1" xmlns="http://www.w3.org/2000/svg" width="682.667" height="682.667" viewBox="0 0 512.000000 512.000000"><path d="M121.9 123.4c-.1 0-.2 43.3-.3 96.1-.3 86.3-.5 96.5-2 101.2-4.2 13.1-13.3 20.3-25.7 20.3-17 0-25-8.2-26.6-27.4-.3-3.4-.6-6.2-.8-6.4-.2-.2-39.9-.4-60.8-.2H3l.5 7.5C5.4 341 15.7 361 34.1 373.7c8.1 5.6 13.2 8.1 22.7 11.2 9.9 3.2 22 4.8 36.2 4.9 13.2 0 21.2-1.1 32-4.4 30.9-9.5 51.3-31.4 58-62.2 1.8-8.2 1.9-14 2-104.4v-95.6h-31.5c-17.3 0-31.5.1-31.6.2zM225.6 123.9c-.3.4-.5 59.6-.5 131.7v130.9l29.2-.2c16.1-.1 30.4-.2 31.9-.2l2.7-.1-.3-39.7c-.3-21.9-.7-43.2-1-47.3-.2-4.1-.7-13.1-1-20-.6-12.2-1.1-22-2.1-41-.3-5.2-.7-15.1-1-21.9-.3-6.8-.8-12.8-1.1-13.2-.3-.5-.1-.9.4-.9s1.8 2.8 3 6.2c1.1 3.5 4.8 14.4 8.2 24.3 9.4 27.3 31.4 91.9 37.6 110.5 3.1 9.1 5.8 17.2 6.1 18 .4.8 2.5 6.9 4.7 13.4l4.1 11.9h20.8c11.4 0 20.9-.2 21.1-.4.2-.2 1.5-3.8 2.9-7.9 3.6-10.6 27.3-79.9 43.9-128.5 7.7-22.6 14.5-42.7 15-44.8.6-2 1.5-3.7 2-3.7s.7.4.4.8c-.4.7-.9 7.5-2.2 33.2-.2 5.8-.7 14.1-.9 18.5-.2 4.4-.7 14.5-1.1 22.5-.3 8-.8 17-1 20-.2 3-.7 24.5-1 47.8-.6 40.8-.6 42.2 1.2 42.3 2.5.1 59.5.1 61.2 0 .9-.1 1.2-27.1 1.2-131.5V123.2h-83.9l-4.6 14.7c-2.5 8-5 15.7-5.5 17.1-.5 1.4-4.3 13.3-8.5 26.5s-10.1 31.4-13 40.5c-2.9 9.1-8.6 26.6-12.5 39-11.9 37.1-14.1 44-14.5 44-.2 0-1.8-4.4-3.5-9.8-1.7-5.3-5.3-16.5-8-24.7-2.6-8.3-8.7-27.2-13.5-42-4.7-14.9-10.7-33.3-13.2-41-2.5-7.7-4.6-14.5-4.7-15-.2-.6-3.8-11.8-8.1-25.1l-7.8-24-41.3-.1c-22.8-.1-41.6.2-41.8.6z"/></svg>